<svg width="28" height="29" viewBox="0 0 28 29" fill="none" xmlns="http://www.w3.org/2000/svg">
<path d="M18.0006 22.3909C18.0006 24.5388 16.2595 26.2799 14.1116 26.2799C11.9638 26.2799 10.2227 24.5388 10.2227 22.3909C10.2227 20.2431 11.9638 18.502 14.1116 18.502C16.2595 18.502 18.0006 20.2431 18.0006 22.3909Z" fill="#BBBBBB"/>
<path d="M3.80138 18.6468C3.88794 18.3005 4.19904 18.0576 4.55594 18.0576H24.3414C24.6983 18.0576 25.0094 18.3005 25.096 18.6468L25.8737 21.7579C25.9965 22.2488 25.6252 22.7243 25.1192 22.7243H3.77816C3.27216 22.7243 2.90088 22.2488 3.02361 21.7579L3.80138 18.6468Z" fill="#787878"/>
<path d="M7.35605 5.50623C7.40945 5.12171 7.73822 4.83545 8.12643 4.83545H20.772C21.1602 4.83545 21.489 5.12171 21.5424 5.50623L23.2708 17.9507C23.3357 18.4183 22.9725 18.8354 22.5004 18.8354H6.39803C5.92594 18.8354 5.56271 18.4183 5.62765 17.9507L7.35605 5.50623Z" fill="#787878"/>
<path d="M24.5602 6.39093C24.5602 8.53876 22.819 10.2799 20.6712 10.2799C18.5234 10.2799 16.7822 8.53876 16.7822 6.39093C16.7822 4.24311 18.5234 2.50195 20.6712 2.50195C22.819 2.50195 24.5602 4.24311 24.5602 6.39093Z" fill="#BCDB00"/>
</svg>
