<svg width="65" height="21" viewBox="0 0 65 21" fill="none" xmlns="http://www.w3.org/2000/svg">
<g clip-path="url(#clip0_4180_23684)">
<path d="M5.60476 20.1029L0 0.882812H4.58691L7.38929 12.0923L8.39392 16.5603H8.48645L9.46464 12.0923L12.2802 0.882812H16.8672L11.2624 20.1029H5.60476Z" fill="white"/>
<path d="M28.2134 20.1029V0.882812H33.5802L39.1189 12.3038L40.5861 16.3223H40.6787L40.1235 11.3917V0.882812H44.2081V20.1029H38.8016L33.2894 8.68189L31.9014 5.02029H31.7692L32.298 10.7308V20.1029H28.2134Z" fill="white"/>
<path d="M55.3795 20.5C53.7761 20.5 52.3167 20.1127 51.0041 19.3367C49.6915 18.5608 48.6472 17.42 47.8713 15.9131C47.0953 14.4061 46.708 12.5595 46.708 10.3744C46.708 8.18936 47.0808 6.46563 47.825 4.99438C48.5692 3.52313 49.5937 2.40615 50.8984 1.64342C52.2031 0.880701 53.7007 0.5 55.3927 0.5C57.0847 0.5 58.5322 0.880701 59.8409 1.64342C61.1495 2.40615 62.1845 3.52313 62.9473 4.99438C63.71 6.46563 64.0907 8.25942 64.0907 10.3744C64.0907 12.4894 63.7113 14.4061 62.9539 15.9131C62.1964 17.42 61.1627 18.5608 59.8541 19.3367C58.5454 20.1127 57.0543 20.5 55.3795 20.5ZM55.3795 16.6533C56.2612 16.6533 57.0319 16.4286 57.6928 15.9792C58.3537 15.5297 58.8719 14.845 59.246 13.9237C59.6201 13.0023 59.8078 11.8325 59.8078 10.4141C59.8078 9.07502 59.6228 7.95539 59.2526 7.05651C58.8825 6.15763 58.3643 5.48083 57.6994 5.02743C57.0332 4.57403 56.2652 4.34666 55.3927 4.34666C54.5203 4.34666 53.8171 4.57403 53.1522 5.02743C52.4873 5.48083 51.9625 6.15763 51.5791 7.05651C51.1958 7.95539 51.0041 9.07502 51.0041 10.4141C51.0041 11.4808 51.1138 12.4061 51.3346 13.19C51.5553 13.9739 51.8633 14.6216 52.2599 15.1332C52.6565 15.6447 53.1218 16.0254 53.6545 16.2766C54.1872 16.5278 54.7622 16.6533 55.3795 16.6533Z" fill="white"/>
<path d="M25.1384 7.89062H24.7101H22.7286H22.0254H21.4834V14.8728H22.4867H24.4616H25.7134V7.89062H25.1384Z" fill="white"/>
<path d="M24.7586 19.8245C25.0692 19.6394 25.3058 19.3869 25.4671 19.0684C25.6284 18.7498 25.709 18.3889 25.709 17.9858C25.709 17.5826 25.6284 17.2085 25.4671 16.8912C25.3058 16.574 25.0692 16.3255 24.7586 16.1444C24.4479 15.9633 24.0686 15.8721 23.6204 15.8721C23.1723 15.8721 22.7678 15.9659 22.4493 16.155C22.1307 16.344 21.8888 16.5978 21.7249 16.9164C21.561 17.2349 21.479 17.5905 21.479 17.9818C21.479 18.3731 21.561 18.7524 21.7249 19.071C21.8888 19.3896 22.1307 19.6407 22.4493 19.8245C22.7678 20.0095 23.1578 20.1008 23.6204 20.1008C24.0831 20.1008 24.4466 20.0082 24.7586 19.8218V19.8245Z" fill="#DFFF00"/>
<path d="M17.8652 2.15217L21.6511 8.26189L23.1527 7.86929L22.8091 0.859375L17.8652 2.15217Z" fill="white"/>
</g>
<defs>
<clipPath id="clip0_4180_23684">
<rect width="64.5473" height="20" fill="white" transform="translate(0 0.5)"/>
</clipPath>
</defs>
</svg>
