<svg width="36" height="36" viewBox="0 0 36 36" fill="none" xmlns="http://www.w3.org/2000/svg">
<path d="M2.87988 15.1191H33.1199V31.3191H2.87988V15.1191Z" fill="#E8E8E8"/>
<path d="M17.7748 3.24199L3.05957 15.1205H33.1196L18.2254 3.24067C18.0935 3.13543 17.9061 3.13598 17.7748 3.24199Z" fill="#BBBBBB"/>
<path fill-rule="evenodd" clip-rule="evenodd" d="M3.05957 15.1205H33.1196L18.2254 3.24067C18.0935 3.13543 17.9061 3.13598 17.7748 3.24199L3.05957 15.1205ZM4.07868 14.7605H32.0909L18.0009 3.52211L4.07868 14.7605Z" fill="#BBBBBB"/>
<path fill-rule="evenodd" clip-rule="evenodd" d="M33.1199 15.1191H2.87988L33.1199 31.3191V15.1191Z" fill="#BBBBBB"/>
<path d="M6.12012 7.92055C6.12012 7.72172 6.28129 7.56055 6.48012 7.56055H29.5201C29.7189 7.56055 29.8801 7.72172 29.8801 7.92055V26.2805C29.8801 26.4794 29.7189 26.6405 29.5201 26.6405H6.48012C6.28129 26.6405 6.12012 26.4794 6.12012 26.2805V7.92055Z" fill="#1E1E1E"/>
<path fill-rule="evenodd" clip-rule="evenodd" d="M33.12 31.3191L18 23.2191L33.12 15.1191V31.3191Z" fill="#BBBBBB"/>
<path fill-rule="evenodd" clip-rule="evenodd" d="M2.87988 31.3191H33.1199L2.87988 15.1191V31.3191Z" fill="#E8E8E8"/>
<path d="M28.0798 11.5194C28.0798 12.7123 27.1127 13.6794 25.9198 13.6794C24.7268 13.6794 23.7598 12.7123 23.7598 11.5194C23.7598 10.3264 24.7268 9.35938 25.9198 9.35938C27.1127 9.35938 28.0798 10.3264 28.0798 11.5194Z" fill="white"/>
<path d="M8.28027 9.7207H19.8003V11.1607H8.28027V9.7207Z" fill="white"/>
<path d="M8.28027 11.8809H16.5603V13.3209H8.28027V11.8809Z" fill="white"/>
</svg>
