<svg width="28" height="29" viewBox="0 0 28 29" fill="none" xmlns="http://www.w3.org/2000/svg">
<path fill-rule="evenodd" clip-rule="evenodd" d="M11.6386 6.08556C7.98735 6.08556 5.02745 9.04545 5.02745 12.6967C5.02745 16.3479 7.98735 19.3078 11.6386 19.3078C15.2898 19.3078 18.2497 16.3479 18.2497 12.6967C18.2497 9.04545 15.2898 6.08556 11.6386 6.08556ZM3.08301 12.6967C3.08301 7.97157 6.91346 4.14111 11.6386 4.14111C16.3637 4.14111 20.1941 7.97157 20.1941 12.6967C20.1941 17.4218 16.3637 21.2522 11.6386 21.2522C6.91346 21.2522 3.08301 17.4218 3.08301 12.6967Z" fill="white"/>
<path fill-rule="evenodd" clip-rule="evenodd" d="M18.0556 17.7383L24.0972 23.7799L22.7223 25.1548L16.6807 19.1132L18.0556 17.7383Z" fill="white"/>
</svg>
